<?xml version="1.0" standalone="no"?>
<!DOCTYPE svg PUBLIC "-//W3C//DTD SVG 20010904//EN"
 "http://www.w3.org/TR/2001/REC-SVG-20010904/DTD/svg10.dtd">
<svg version="1.0" xmlns="http://www.w3.org/2000/svg"
 width="1024.000000pt" height="1024.000000pt" viewBox="0 0 1024.000000 1024.000000"
 preserveAspectRatio="xMidYMid meet">
<metadata>
Created by potrace 1.14, written by Peter Selinger 2001-2017
</metadata>
<g transform="translate(0.000000,1024.000000) scale(0.100000,-0.100000)"
fill="#000000" stroke="none">
<path d="M2608 10225 c-664 -91 -1259 -386 -1728 -855 -505 -505 -809 -1161
-870 -1875 -14 -164 -14 -4576 0 -4740 61 -714 365 -1370 870 -1875 505 -505
1161 -809 1875 -870 164 -14 4576 -14 4740 0 1002 85 1884 654 2379 1534 159
284 272 610 338 973 l23 128 0 2480 0 2480 -23 128 c-118 653 -394 1189 -842
1637 -446 446 -962 712 -1630 842 l-115 22 -2460 2 c-2005 2 -2478 0 -2557
-11z m2632 -1165 c359 -37 581 -127 752 -303 143 -146 216 -318 238 -562 32
-336 -60 -623 -264 -829 -151 -153 -324 -241 -586 -298 -95 -21 -132 -23 -377
-23 l-273 0 0 -512 0 -513 -295 0 -295 0 0 1489 0 1489 28 6 c85 18 339 48
502 59 110 8 484 6 570 -3z m-1925 -1517 c263 -819 480 -1496 483 -1505 4 -17
-15 -18 -305 -18 l-309 0 -26 83 c-15 45 -63 196 -108 335 l-81 252 -449 0
-448 0 -19 -62 c-11 -35 -57 -186 -103 -335 l-84 -273 -293 0 c-161 0 -293 3
-293 6 0 8 961 2987 967 2997 2 4 136 7 297 7 l293 0 478 -1487z m5445 1227
l0 -260 -382 -2 -383 -3 0 -980 0 -980 383 -3 382 -2 0 -260 0 -260 -1060 0
-1060 0 0 260 0 260 380 0 380 0 0 985 0 985 -380 0 -380 0 0 260 0 260 1060
0 1060 0 0 -260z m-145 -3397 c92 -31 165 -134 165 -233 0 -61 -30 -130 -75
-175 -80 -81 279 -73 -3696 -81 -3376 -6 -3559 -6 -3609 11 -97 32 -170 133
-170 235 0 90 57 182 137 222 l48 23 1975 5 c4709 12 5172 12 5225 -7z m-5810
-1113 c226 -20 444 -66 596 -127 l89 -35 0 -439 0 -439 -235 0 -235 0 0 238 0
238 -72 17 c-202 46 -452 57 -563 23 -90 -27 -148 -61 -192 -110 -90 -103 -85
-256 13 -365 87 -96 230 -175 569 -311 308 -124 452 -206 578 -329 171 -165
237 -318 237 -549 0 -191 -39 -339 -124 -477 -172 -275 -501 -433 -941 -452
-301 -12 -596 49 -878 184 l-117 56 0 399 0 398 235 0 235 0 2 -212 3 -211 95
-33 c52 -18 131 -40 175 -50 96 -20 312 -23 400 -6 129 26 250 106 298 197 15
28 22 65 25 126 6 112 -17 167 -100 244 -101 93 -192 140 -544 276 -315 121
-461 204 -590 333 -168 168 -232 338 -221 586 7 142 23 211 76 325 69 147 192
279 339 362 234 132 482 174 847 143z m2367 -25 c215 -28 413 -100 567 -205
78 -53 197 -171 249 -247 171 -252 246 -571 245 -1048 0 -568 -122 -956 -383
-1215 -220 -220 -484 -330 -865 -361 -145 -11 -260 -9 -680 17 -132 8 -243 14
-247 14 -5 0 -8 679 -8 1509 l0 1509 33 5 c27 5 207 18 422 30 173 11 564 6
667 -8z m2038 -640 l0 -616 152 3 152 3 341 610 341 610 337 3 337 2 -72 -122
c-39 -68 -228 -392 -419 -720 -192 -329 -350 -601 -351 -606 -2 -5 210 -356
470 -780 259 -424 472 -773 472 -776 0 -4 -163 -5 -361 -4 l-362 3 -368 625
-368 625 -150 3 -151 3 0 -631 0 -630 -295 0 -295 0 0 1505 0 1505 295 0 295
0 0 -615z"/>
<path d="M4876 8559 c-65 -5 -125 -10 -132 -13 -12 -4 -14 -91 -14 -490 0
-452 1 -484 18 -491 36 -14 270 -18 368 -6 270 33 408 126 474 320 26 77 36
225 21 306 -35 188 -180 323 -387 360 -107 19 -207 23 -348 14z"/>
<path d="M2491 8103 c-136 -454 -271 -908 -276 -924 -6 -19 1 -19 314 -19 177
0 321 3 321 6 0 4 -67 229 -150 501 -82 272 -150 496 -150 498 0 3 -9 5 -20 5
-15 0 -23 -14 -39 -67z"/>
<path d="M4775 3723 c-33 -1 -79 -5 -102 -9 l-43 -5 0 -1005 c0 -947 1 -1005
18 -1012 9 -3 103 -7 207 -7 154 0 203 4 260 19 255 68 416 263 470 571 48
274 40 734 -16 953 -28 110 -88 227 -153 299 -106 116 -218 172 -386 193 -81
10 -119 10 -255 3z"/>
</g>
</svg>
